<?xml version="1.0" ?><svg height="84" id="svg8" version="1.1" viewBox="0 0 22.224999 22.225001" width="84" xmlns="http://www.w3.org/2000/svg" xmlns:cc="http://creativecommons.org/ns#" xmlns:dc="http://purl.org/dc/elements/1.1/" xmlns:inkscape="http://www.inkscape.org/namespaces/inkscape" xmlns:rdf="http://www.w3.org/1999/02/22-rdf-syntax-ns#" xmlns:sodipodi="http://sodipodi.sourceforge.net/DTD/sodipodi-0.dtd" xmlns:svg="http://www.w3.org/2000/svg" xmlns:xlink="http://www.w3.org/1999/xlink"><defs id="defs2"><clipPath clipPathUnits="userSpaceOnUse" id="clipPath913"><rect height="22.225" id="rect915" ry="1.0561733" style="opacity:1;fill:#cccccc;fill-opacity:1;stroke:none;stroke-width:2.3812499;stroke-miterlimit:4;stroke-dasharray:none;stroke-opacity:1" width="22.225" x="5.1662187e-07" y="274.77499"/></clipPath><filter height="1.024" id="filter925" style="color-interpolation-filters:sRGB" width="1.024" x="-0.012000002" y="-0.011999998"><feGaussianBlur id="feGaussianBlur927" stdDeviation="0.11112502"/></filter><clipPath clipPathUnits="userSpaceOnUse" id="clipPath1116"><rect height="4.1671872" id="rect1118" ry="1.0583333" style="opacity:1;fill:#ffffff;fill-opacity:1;stroke:none;stroke-width:2.3812499;stroke-miterlimit:4;stroke-dasharray:none;stroke-opacity:1" width="14.188281" x="4.1536818" y="296.42569"/></clipPath><clipPath clipPathUnits="userSpaceOnUse" id="clipPath1116-3"><rect height="4.1671872" id="rect1118-5" ry="1.0583333" style="opacity:1;fill:#ffffff;fill-opacity:1;stroke:none;stroke-width:2.3812499;stroke-miterlimit:4;stroke-dasharray:none;stroke-opacity:1" width="14.188281" x="4.1536818" y="296.42569"/></clipPath><clipPath clipPathUnits="userSpaceOnUse" id="clipPath934"><rect height="1.9999999" id="rect936" ry="0.095043726" style="opacity:1;fill:#cccccc;fill-opacity:1;stroke:none;stroke-width:0.22499999;stroke-miterlimit:4;stroke-dasharray:none;stroke-opacity:1" width="1.9999999" x="0.50000012" y="3.6319111e-07"/></clipPath><clipPath clipPathUnits="userSpaceOnUse" id="clipPath1116-3-3"><rect height="4.1671872" id="rect1118-5-6" ry="1.0583333" style="opacity:1;fill:#ffffff;fill-opacity:1;stroke:none;stroke-width:2.3812499;stroke-miterlimit:4;stroke-dasharray:none;stroke-opacity:1" width="14.188281" x="4.1536818" y="296.42569"/></clipPath><filter height="4.2609401" id="filter1252" style="color-interpolation-filters:sRGB" width="1.3716171" x="-0.18580855" y="-1.6304702"><feGaussianBlur id="feGaussianBlur1254" stdDeviation="0.89873998"/></filter><linearGradient gradientTransform="matrix(0.94047407,0,0,0.94047407,0.66150631,17.017681)" gradientUnits="userSpaceOnUse" id="linearGradient881" x1="9.705225" x2="9.705225" xlink:href="#linearGradient879" y1="274.82999" y2="290.70914"/><linearGradient id="linearGradient879"><stop id="stop875" offset="0" style="stop-color:#ffffff;stop-opacity:0.49019608"/><stop id="stop877" offset="1" style="stop-color:#ffffff;stop-opacity:0;"/></linearGradient><linearGradient gradientTransform="matrix(0.9865248,0,0,0.9865248,-25.9336,3.3303351)" gradientUnits="userSpaceOnUse" id="linearGradient955" x1="36.43552" x2="36.43552" xlink:href="#linearGradient953" y1="297" y2="275.85895"/><linearGradient id="linearGradient953"><stop id="stop949" offset="0" style="stop-color:#484538;stop-opacity:0.49019608"/><stop id="stop951" offset="1" style="stop-color:#5599ff;stop-opacity:0"/></linearGradient></defs><g id="layer1" transform="translate(0,-274.77498)"><g id="g1003"><rect height="22.225006" id="rect923" ry="1.0583333" style="opacity:0.65;fill:#000000;fill-opacity:1;stroke:none;stroke-width:2.43836641;stroke-miterlimit:4;stroke-dasharray:none;stroke-opacity:1;filter:url(#filter925)" transform="matrix(0.97657594,0,0,0.97657594,35.248554,34.650697)" width="22.225" x="-35.82748" y="246.15042"/><g clip-path="url(#clipPath934)" id="g913" transform="matrix(10.451042,0,0,10.451042,-4.5640636,275.43644)"><rect height="2" id="rect896" style="fill:#009246;stroke-width:0.89614964" width="0.80308419" x="0.29537371" y="0"/><rect height="2" id="rect898" style="fill:#ffffff;stroke-width:0.89614964" width="0.80308419" x="1.0984579" y="0"/><rect height="2" id="rect900" style="fill:#ce2b37;stroke-width:0.89614964" width="0.80308419" x="1.9015421" y="0"/></g><rect height="20.881441" id="rect947" ry="0.99232495" style="opacity:1;fill:url(#linearGradient955);fill-opacity:1;stroke:none;stroke-width:2.3812499;stroke-miterlimit:4;stroke-dasharray:none;stroke-opacity:1" width="20.881441" x="0.67178112" y="275.44678"/><path d="m 1.6548505,275.43651 c -0.5502909,0 -0.99339161,0.44261 -0.99339161,0.9929 v 18.91574 c 0,0.55029 0.44310071,0.99339 0.99339161,0.99339 H 20.570106 c 0.550288,0 0.993389,-0.4431 0.993389,-0.99339 v -18.91574 c 0,-0.55029 -0.443101,-0.9929 -0.993389,-0.9929 z m 0.2104387,0.49913 H 20.359664 c 0.524,0 0.945763,0.42176 0.945763,0.94575 v 18.01177 c 0,0.524 -0.421763,0.94577 -0.945763,0.94577 H 1.8652892 c -0.5239991,0 -0.94576232,-0.42177 -0.94576232,-0.94577 v -18.01177 c 0,-0.52399 0.42176322,-0.94575 0.94576232,-0.94575 z" id="rect826" style="opacity:1;fill:url(#linearGradient881);fill-opacity:1;stroke:none;stroke-width:2.38125014;stroke-miterlimit:4;stroke-dasharray:none;stroke-opacity:1"/><ellipse clip-path="url(#clipPath1116-3-3)" cx="11.132068" cy="300.39444" id="path972" rx="5.804297" ry="0.66145831" style="opacity:0.7;fill:#ffffff;fill-opacity:1;stroke:none;stroke-width:2.3812499;stroke-miterlimit:4;stroke-dasharray:none;stroke-opacity:1;filter:url(#filter1252)" transform="translate(-0.01956742,-4.2543465)"/></g></g></svg>