<svg id="Layer_1" data-name="Layer 1" xmlns="http://www.w3.org/2000/svg" xmlns:xlink="http://www.w3.org/1999/xlink" viewBox="0 0 572.33 105.98">
	<defs>
		<style>
			.cls-1{fill:#ffffff;}
			.cls-2{clip-path:url(#clip-path);}
			.cls-3{fill:#ffffff;}
		</style>
		<clipPath id="clip-path" transform="translate(-37.81 -47.82)"><rect class="cls-1" width="658.9" height="200.22"/></clipPath>
	</defs>
	<title>Betfair Romania</title>
	<g class="cls-2">
		<path class="cls-3" d="M133.36,103.23h.17c2.62,3.46,7.45,5.25,13.39,5.25H150c12.42,0,21.51-3.16,21.5-17.48V82.26c0-13.25-5.85-18-21.12-18h-4.74c-6.67,0-10.38,2.26-12.12,4.71h-.16V47.82H124v59.3h9.34Zm0-21.32c0-9.92,6.35-10.1,14.9-10.1h1c8.35,0,12.92,1.41,12.92,11V89.5c0,8-2.07,11.46-13.21,11.46h-2.13c-10.57,0-13.45-2.9-13.45-10.91Z" transform="translate(-37.81 -47.82)"/>
		<path class="cls-3" d="M284.74,65.34H272.19V61.52c0-3.65,2.39-6.59,7.49-6.59H289V47.82H276.62c-7.49,0-13.77,3.9-13.77,13.74v3.78h-5v7.5h5v35.61h9.35V72.85h12.54Z" transform="translate(-37.81 -47.82)"/>
		<path class="cls-3" d="M230.74,94.71c0,9.84,6.29,13.75,13.78,13.75h11.6V101H246.8c-5.1,0-6.71-2.55-6.71-6.2V72.85h12.55v-7.5H240.09V47.82h-9.34V65.34h-5v7.5h5Z" transform="translate(-37.81 -47.82)"/>
		<rect class="cls-3" x="300.54" width="9.34" height="9.49"/>
		<rect class="cls-3" x="300.53" y="16.48" width="9.35" height="44.18"/>
		<path class="cls-3" d="M195.7,108.47h8.4c11.32,0,16.49-3.59,17.81-9.87l-8.31-2.52c-1.38,3.87-4.71,4.88-12,4.88h-2.16c-12,0-13.9-1.51-13.92-10.95h37.09V81.83c0-14.79-7.68-17.54-20-17.54h-4.57c-9.71,0-21.49,1.7-21.49,16.75V91.47c0,14.62,10.21,17,19.13,17M185.51,81.14c0-8.48,4-9.33,13.59-9.33H201c10.84,0,12.24,2.73,12.24,8.31v2.37H185.51Z" transform="translate(-37.81 -47.82)"/>
		<path class="cls-3" d="M309.1,64.29h-3.49c-12.67,0-18.16,3.9-18.52,9.74l8.9,3c.41-4,5-5.17,11.93-5.17,10.33,0,12.77.6,12.77,8.06v4.05h-.18C318.17,80.81,315,80,306.9,80h-3.65c-11.93,0-18.88,3-18.88,12.41v2.7c0,7.79,3,13.36,15.43,13.36h9.07c9,0,9.92-1.48,11.7-4.06h.15v4.05H330V80.06c0-12.37-8.21-15.77-20.95-15.77m11.61,31c0,4.15-2.84,5.69-13.91,5.69h-2.5c-9.4,0-10.6-1.81-10.6-5.39V93.23c0-4.15,2.34-5.72,10.13-5.72H308c7.09,0,12.71,1.39,12.71,6Z" transform="translate(-37.81 -47.82)"/>
		<path class="cls-3" d="M376.18,64.29a12.33,12.33,0,0,0-11,5.87h-.34V64.29H356v44.17h9.35V81.89c0-5.37,3.08-10.08,10.34-10.08,5.19,0,7.69,1.41,8.24,2.88l5.88-4c-1.45-4-5.35-6.43-13.62-6.43" transform="translate(-37.81 -47.82)"/>
		<polygon class="cls-3" points="69 0.15 44.81 0.15 44.81 12.29 31.89 12.29 56.91 41.52 81.94 12.29 69 12.29 69 0.15"/>
		<polygon class="cls-3" points="0 48.24 12.93 48.24 12.93 60.38 37.12 60.38 37.12 48.24 50.05 48.24 25.03 19.02 0 48.24"/></g>

	<path class="cls-3" d="M126,123.68h7.52q1.48,0,2.62.08a18.08,18.08,0,0,1,2,.24,13.42,13.42,0,0,1,1.5.36,9.91,9.91,0,0,1,1.16.44,8.73,8.73,0,0,1,3.9,3.42,9.44,9.44,0,0,1,1.38,5,9.18,9.18,0,0,1-2.26,6,8.82,8.82,0,0,1-2.74,2.08,9.61,9.61,0,0,1-3.8.94l8.36,11h-3.72l-10-13.4,2.38,0q1,0,1.7-.06t1.26-.12a6.06,6.06,0,0,0,1-.24,7.42,7.42,0,0,0,2.12-1,6.54,6.54,0,0,0,1.54-1.48,6,6,0,0,0,.92-1.82,6.74,6.74,0,0,0,.3-2,6.47,6.47,0,0,0-.24-1.74,7.56,7.56,0,0,0-.66-1.62,6,6,0,0,0-1-1.36,5.06,5.06,0,0,0-1.32-1,9.06,9.06,0,0,0-2.6-.9,19.11,19.11,0,0,0-3.16-.22H129v26.92h-3Z" transform="translate(-37.81 -47.82)"/>

	<path class="cls-3" d="M149.22,138.64a14.75,14.75,0,0,1,1.34-6.34,15.82,15.82,0,0,1,3.52-4.9,15.47,15.47,0,0,1,5-3.14,15.77,15.77,0,0,1,5.78-1.1,15.61,15.61,0,0,1,6,1.16,15.87,15.87,0,0,1,5,3.22,15.63,15.63,0,0,1,3.44,4.86,15.08,15.08,0,0,1,0,12.16,15.62,15.62,0,0,1-3.44,4.86,15.86,15.86,0,0,1-5,3.22,15.63,15.63,0,0,1-6,1.16,15.26,15.26,0,0,1-6-1.2,16.19,16.19,0,0,1-5-3.26,15.63,15.63,0,0,1-3.4-4.82A14,14,0,0,1,149.22,138.64Zm3,0a11.62,11.62,0,0,0,1,4.8,12.93,12.93,0,0,0,6.76,6.68,12.15,12.15,0,0,0,4.9,1,12.42,12.42,0,0,0,4.88-1,13,13,0,0,0,4.06-2.68,12.75,12.75,0,0,0,2.76-4,12,12,0,0,0,1-4.94,12.17,12.17,0,0,0-1-4.9,13,13,0,0,0-6.78-6.78,12.59,12.59,0,0,0-9.74,0,12.91,12.91,0,0,0-6.84,6.74A12.41,12.41,0,0,0,152.18,138.64Z" transform="translate(-37.81 -47.82)"/>

	<path class="cls-3" d="M185.3,123.68h4.56l10.76,25.2,10.8-25.2H216v29.6h-3V126.92h-.08l-11.08,26.36h-2.52l-11-26.36h-.08v26.36h-3Z" transform="translate(-37.81 -47.82)"/>

	<path class="cls-3" d="M232.14,123.68h3.32l12.72,29.6h-3.24l-4.28-10H226.9l-4.32,10H219.5Zm-4.12,17H239.5L233.82,127Z" transform="translate(-37.81 -47.82)"/>

	<path class="cls-3" d="M251.62,123.68h4l16.52,24.56h.08V123.68h3v29.6h-3l-17.56-26h-.08v26h-3Z" transform="translate(-37.81 -47.82)"/>

	<path class="cls-3" d="M281.26,123.68h3v29.6h-3Z" transform="translate(-37.81 -47.82)"/>

	<path class="cls-3" d="M300.38,123.68h3.32l12.72,29.6h-3.24l-4.28-10H295.14l-4.32,10h-3.08Zm-4.12,17h11.48L302.06,127Z" transform="translate(-37.81 -47.82)"/>

	<path class="cls-3" d="M330.9,123.68h8.64a21.62,21.62,0,0,1,5.3.64,14.52,14.52,0,0,1,4.34,1.8,12.41,12.41,0,0,1,3.24,2.8,16,16,0,0,1,2.06,3.3,14.81,14.81,0,0,1,1.1,3.36,13.5,13.5,0,0,1,.06,5.56,14.56,14.56,0,0,1-1,3.24,15.29,15.29,0,0,1-2,3.4,13.55,13.55,0,0,1-3.44,3.06,14.49,14.49,0,0,1-4.34,1.8,21.62,21.62,0,0,1-5.3.64H330.9Zm3,26.92h4.28q1,0,2.24,0a19.71,19.71,0,0,0,2.58-.26,15.74,15.74,0,0,0,2.7-.7,10.54,10.54,0,0,0,2.64-1.4,14.62,14.62,0,0,0,1.48-1.44,12.3,12.3,0,0,0,1.5-2.08,13.11,13.11,0,0,0,1.18-2.76,12.28,12.28,0,0,0-.88-9,12.22,12.22,0,0,0-3.68-4.26,13.71,13.71,0,0,0-2-1.08,12.92,12.92,0,0,0-2.2-.7,19.4,19.4,0,0,0-2.52-.38q-1.36-.12-3-.12h-4.28Z" transform="translate(-37.81 -47.82)"/>

	<path class="cls-3" d="M360.5,123.68h16.2v2.68H363.46V137h12.8v2.68h-12.8V150.6H376.7v2.68H360.5Z" transform="translate(-37.81 -47.82)"/>

	<path class="cls-3" d="M379.46,123.68h3.28l10.44,25.92,10.48-25.92h3.2l-12.28,29.6h-2.92Z" transform="translate(-37.81 -47.82)"/>

	<path class="cls-3" d="M410,123.68h16.2v2.68H413V137h12.8v2.68H413V150.6h13.24v2.68H410Z" transform="translate(-37.81 -47.82)"/>

	<path class="cls-3" d="M431.94,123.68h3V150.6h12.24v2.68h-15.2Z" transform="translate(-37.81 -47.82)"/>

	<path class="cls-3" d="M448.86,138.64a14.76,14.76,0,0,1,1.34-6.34,15.82,15.82,0,0,1,3.52-4.9,15.47,15.47,0,0,1,5-3.14,15.78,15.78,0,0,1,5.78-1.1,15.61,15.61,0,0,1,6,1.16,15.88,15.88,0,0,1,5,3.22,15.64,15.64,0,0,1,3.44,4.86,15.08,15.08,0,0,1,0,12.16,15.62,15.62,0,0,1-3.44,4.86,15.87,15.87,0,0,1-5,3.22,15.63,15.63,0,0,1-6,1.16,15.26,15.26,0,0,1-6-1.2,16.19,16.19,0,0,1-5-3.26,15.63,15.63,0,0,1-3.4-4.82A14,14,0,0,1,448.86,138.64Zm3,0a11.62,11.62,0,0,0,1,4.8,12.93,12.93,0,0,0,6.76,6.68,12.15,12.15,0,0,0,4.9,1,12.42,12.42,0,0,0,4.88-1,13,13,0,0,0,4.06-2.68,12.74,12.74,0,0,0,2.76-4,12,12,0,0,0,1-4.94,12.17,12.17,0,0,0-1-4.9,13,13,0,0,0-6.78-6.78,12.59,12.59,0,0,0-9.74,0,12.91,12.91,0,0,0-6.84,6.74A12.42,12.42,0,0,0,451.82,138.64Z" transform="translate(-37.81 -47.82)"/>

	<path class="cls-3" d="M484.9,123.68h8.24a26.65,26.65,0,0,1,2.68.12,15.48,15.48,0,0,1,2.06.34,8.94,8.94,0,0,1,1.6.54,9.31,9.31,0,0,1,1.3.72,8.24,8.24,0,0,1,2.68,2.94,9.24,9.24,0,0,1,0,8.36,8.24,8.24,0,0,1-2.68,2.94,9.31,9.31,0,0,1-1.3.72,8.94,8.94,0,0,1-1.6.54,15.49,15.49,0,0,1-2.06.34,26.34,26.34,0,0,1-2.68.12h-5.28v11.92h-3Zm3,15h4.28l2,0q.82,0,1.48-.08a6.66,6.66,0,0,0,1.22-.22,9.45,9.45,0,0,0,1.2-.44,5.51,5.51,0,0,0,2.6-2.26,6.29,6.29,0,0,0,0-6.28,5.52,5.52,0,0,0-2.6-2.26,9.59,9.59,0,0,0-1.2-.44,6.66,6.66,0,0,0-1.22-.22q-.66-.06-1.48-.08l-2,0h-4.28Z" transform="translate(-37.81 -47.82)"/>

	<path class="cls-3" d="M508.62,123.68h4.56l10.76,25.2,10.8-25.2h4.56v29.6h-3V126.92h-.08l-11.08,26.36h-2.52l-11-26.36h-.08v26.36h-3Z" transform="translate(-37.81 -47.82)"/>

	<path class="cls-3" d="M545.13,123.68h16.2v2.68H548.09V137h12.8v2.68h-12.8V150.6h13.24v2.68h-16.2Z" transform="translate(-37.81 -47.82)"/>

	<path class="cls-3" d="M566.78,123.68h4l16.52,24.56h.08V123.68h3v29.6h-3l-17.56-26h-.08v26h-3Z" transform="translate(-37.81 -47.82)"/>

	<path class="cls-3" d="M600.42,126.36h-6.8v-2.68h16.52v2.68h-6.76v26.92h-3Z" transform="translate(-37.81 -47.82)"/>
</svg>